# This file uses centimeters as units for non-parametric coordinates.

mtllib Wall1.mtl
g default
v -2.756899 1.405556 -0.279952
v 2.756899 1.405556 -0.279952
v -2.756899 -1.405556 -0.091263
v 2.756899 -1.405556 -0.091263
v -2.756899 1.112850 -0.279952
v 2.756899 1.112850 -0.279952
v -2.756899 -1.120171 -0.091263
v 2.756899 -1.120171 -0.091263
v -2.756899 -0.988386 -0.091263
v 2.756899 -0.988386 -0.091263
v -2.756899 0.951779 -0.091263
v 2.756899 0.951779 -0.091263
v -2.729324 0.951779 -0.091263
v -2.729324 -0.988386 -0.091263
v -2.729324 -1.120171 -0.091263
v -2.729324 -1.405556 -0.091263
v -2.729324 1.405556 -0.279952
v -2.729324 1.112850 -0.279952
v 2.741169 0.951779 -0.091263
v 2.741169 -0.988386 -0.091263
v 2.741169 -1.120171 -0.091263
v 2.741169 -1.405556 -0.091263
v 2.741169 1.405556 -0.279952
v 2.741169 1.112850 -0.279952
v 2.756899 1.383255 -0.279952
v 2.741169 1.383255 -0.279952
v -2.729324 1.383255 -0.279952
v -2.756899 1.383255 -0.279952
v 2.756899 1.128185 -0.279952
v 2.741169 1.128185 -0.279952
v -2.729324 1.128185 -0.279952
v -2.756899 1.128185 -0.279952
v 2.741169 1.097260 -0.261689
v -2.729324 1.097260 -0.261689
v -2.756899 1.097260 -0.261689
v 2.756899 1.097260 -0.261689
v 2.756899 0.957908 -0.098443
v 2.741169 0.957908 -0.098443
v -2.729324 0.957908 -0.098443
v -2.756899 0.957908 -0.098443
v 2.756899 0.943320 -0.091263
v 2.741169 0.943320 -0.091263
v -2.729324 0.943320 -0.091263
v -2.756899 0.943320 -0.091263
v 2.741169 -1.387209 -0.091263
v -2.729324 -1.387209 -0.091263
v -2.756899 -1.387209 -0.091263
v 2.756899 -1.387209 -0.091263
v -2.756899 1.405556 -0.243697
v -2.729324 1.405556 -0.243697
v 2.741169 1.405556 -0.243697
v 2.756899 1.405556 -0.243697
vt 0.977275 0.784525
vt 0.977275 0.784525
vt 0.977274 0.777850
vt 0.981164 0.779158
vt 0.982909 0.294354
vt 0.978064 0.294346
vt 0.978145 0.244926
vt 0.982991 0.244940
vt 0.977282 0.773732
vt 0.982133 0.773971
vt 0.982870 0.318743
vt 0.978024 0.318734
vt 0.982293 0.677794
vt 0.977445 0.677785
vt 0.977448 0.676219
vt 0.982293 0.676228
vt 0.982218 0.723702
vt 0.977370 0.723694
vt 0.977377 0.719251
vt 0.982219 0.719262
vt 0.016082 0.676117
vt 0.016085 0.674551
vt 0.016651 0.317011
vt 0.016691 0.292619
vt 0.016771 0.243192
vt 0.015922 0.782919
vt 0.015932 0.776209
vt 0.015938 0.772082
vt 0.016014 0.722035
vt 0.016020 0.717591
vt 0.013313 0.676115
vt 0.013320 0.674546
vt 0.013887 0.317006
vt 0.013926 0.292614
vt 0.014005 0.243184
vt 0.013153 0.782924
vt 0.013164 0.776205
vt 0.013174 0.772077
vt 0.013255 0.717587
vt 0.013253 0.722039
vt 0.016010 0.724874
vt 0.013246 0.724869
vt 0.977365 0.726532
vt 0.982229 0.726542
vt 0.977442 0.679532
vt 0.016079 0.677864
vt 0.982290 0.679542
vt 0.013314 0.677860
vt 0.978150 0.241531
vt 0.016776 0.239796
vt 0.983010 0.241550
vt 0.014015 0.239783
vn 0.000000 1.000000 0.000000
vn 0.000000 1.000000 0.000000
vn 0.000000 1.000000 0.000000
vn 0.000000 1.000000 0.000000
vn 0.000000 0.000000 -1.000000
vn 0.000000 0.000000 -1.000000
vn 0.000000 0.000000 -1.000000
vn 0.000000 0.000000 -1.000000
vn 0.000000 0.000000 -1.000000
vn 0.000000 0.000000 -1.000000
vn 0.000000 -0.000000 -1.000000
vn 0.000000 -0.000000 -1.000000
vn 0.000000 0.000000 -1.000000
vn 0.000000 0.000000 -1.000000
vn 0.000000 -0.441595 -0.897214
vn 0.000000 -0.441596 -0.897214
vn 0.000000 0.000000 -1.000000
vn 0.000000 0.000000 -1.000000
vn 0.000000 -0.508499 -0.861063
vn 0.000000 -0.508500 -0.861062
vn 0.000000 -0.760576 -0.649249
vn 0.000000 -0.760576 -0.649248
vn 0.000000 -0.441596 -0.897214
vn 0.000000 0.000000 -1.000000
vn 0.000000 0.000000 -1.000000
vn 0.000000 0.000000 -1.000000
vn 0.000000 0.000000 -1.000000
vn 0.000000 1.000000 0.000000
vn 0.000000 1.000000 0.000000
vn 0.000000 0.000000 -1.000000
vn 0.000000 -0.000000 -1.000000
vn 0.000000 -0.508500 -0.861062
vn 0.000000 -0.760576 -0.649249
vn 0.000000 -0.441592 -0.897216
vn 0.000000 0.000000 -1.000000
vn 0.000000 0.000000 -1.000000
vn 0.000000 0.000000 -1.000000
vn 0.000000 0.000000 -1.000000
vn 0.000000 1.000000 0.000000
vn 0.000000 1.000000 0.000000
vn 0.000000 0.000000 -1.000000
vn 0.000000 -0.000000 -1.000000
vn 0.000000 -0.760577 -0.649248
vn 0.000000 -0.508499 -0.861063
vn 0.000000 -0.000000 -1.000000
vn 0.000000 -0.000000 -1.000000
vn 0.000000 -0.000000 -1.000000
vn 0.000000 -0.000000 -1.000000
vn 0.000000 -0.760576 -0.649249
vn 0.000000 -0.760576 -0.649249
vn 0.000000 -0.760576 -0.649249
vn 0.000000 -0.760576 -0.649249
vn 0.000000 0.000000 -1.000000
vn 0.000000 0.000000 -1.000000
vn 0.000000 0.000000 -1.000000
vn 0.000000 0.000000 -1.000000
s 1
g pCube1
usemtl lambert3SG
f 49/1/1 50/2/2 17/3/3 1/4/4
s 2
f 7/5/5 15/6/6 46/7/7 47/8/8
f 1/4/9 17/3/10 27/9/11 28/10/12
f 9/11/13 14/12/14 15/6/6 7/5/5
f 11/13/15 13/14/16 43/15/17 44/16/18
f 5/17/19 18/18/20 34/19/21 35/20/22
f 13/14/16 19/21/23 42/22/24 43/15/17
f 15/6/6 14/12/14 20/23/25 21/24/26
f 46/7/7 15/6/6 21/24/26 45/25/27
s 1
f 17/3/3 50/2/2 51/26/28 23/27/29
s 2
f 27/9/11 17/3/10 23/27/30 26/28/31
f 34/19/21 18/18/20 24/29/32 33/30/33
f 19/21/23 12/31/34 41/32/35 42/22/24
f 21/24/26 20/23/25 10/33/36 8/34/37
f 48/35/38 45/25/27 21/24/26 8/34/37
s 1
f 23/27/29 51/26/28 52/36/39 2/37/40
s 2
f 26/28/31 23/27/30 2/37/41 25/38/42
f 36/39/43 33/30/33 24/29/32 6/40/44
f 30/41/45 26/28/31 25/38/42 29/42/46
f 31/43/47 27/9/11 26/28/31 30/41/45
f 28/10/12 27/9/11 31/43/47 32/44/48
f 24/29/32 30/41/45 29/42/46 6/40/44
f 18/18/20 31/43/47 30/41/45 24/29/32
f 32/44/48 31/43/47 18/18/20 5/17/19
f 39/45/49 34/19/21 33/30/33 38/46/50
f 35/20/22 34/19/21 39/45/49 40/47/51
f 38/46/50 33/30/33 36/39/43 37/48/52
f 19/21/23 38/46/50 37/48/52 12/31/34
f 13/14/16 39/45/49 38/46/50 19/21/23
f 40/47/51 39/45/49 13/14/16 11/13/15
f 42/22/24 41/32/35 10/33/36 20/23/25
f 43/15/17 42/22/24 20/23/25 14/12/14
f 44/16/18 43/15/17 14/12/14 9/11/13
f 16/49/53 46/7/7 45/25/27 22/50/54
f 47/8/8 46/7/7 16/49/53 3/51/55
f 22/50/54 45/25/27 48/35/38 4/52/56
